<svg xmlns="http://www.w3.org/2000/svg" width="70" height="70" viewBox="0 0 70 70">
    <g fill="#FEFEFE" fill-rule="evenodd" stroke="#FFF" stroke-width=".4">
        <path d="M51.485 54h-31.97C18.678 54 18 53.294 18 52.423V25.547c0-.507.234-.983.63-1.28l15.965-11.97a1.467 1.467 0 0 1 1.77 0l13.267 9.947c.679.51.833 1.495.344 2.201a1.477 1.477 0 0 1-2.115.358l-12.38-9.283L21.03 26.355v24.491h28.94V34.79H36.273c-1.548.037-2.797 1.36-2.797 2.98 0 1.644 1.285 2.981 2.864 2.981.83 0 1.617-.374 2.162-1.026a1.474 1.474 0 0 1 2.138-.155c.631.572.698 1.568.149 2.225-1.121 1.34-2.742 2.11-4.449 2.11-3.25 0-5.894-2.752-5.894-6.135s2.644-6.134 5.894-6.134h15.145c.837 0 1.515.707 1.515 1.578v19.21c0 .87-.678 1.576-1.515 1.576"/>
        <path d="M35 4.007C17.91 4.007 4.007 17.91 4.007 35 4.007 52.09 17.91 65.993 35 65.993c17.09 0 30.993-13.903 30.993-30.993C65.993 17.91 52.089 4.007 35 4.007M35 69c-4.59 0-9.042-.9-13.235-2.673a33.886 33.886 0 0 1-10.807-7.285 33.885 33.885 0 0 1-7.285-10.807A33.788 33.788 0 0 1 1 35c0-4.59.9-9.042 2.673-13.235a33.887 33.887 0 0 1 7.285-10.807 33.886 33.886 0 0 1 10.807-7.285A33.788 33.788 0 0 1 35 1c4.59 0 9.042.9 13.235 2.673a33.886 33.886 0 0 1 10.807 7.285 33.885 33.885 0 0 1 7.285 10.807A33.788 33.788 0 0 1 69 35c0 4.59-.9 9.042-2.673 13.235a33.885 33.885 0 0 1-7.285 10.807 33.886 33.886 0 0 1-10.807 7.285A33.788 33.788 0 0 1 35 69"/>
    </g>
</svg>
